PathFileType	4	(X/Y/Z)	walk-thru1-3-TP.trc
DataRate	CameraRate	NumFrames	NumMarkers	Units	OrigDataRate	OrigDataStartFrame	OrigNumFrames
120.00	120.00	       4	60	mm	120.00	199	       529
Frame#	Time	Top.Head			Front.Head			Rear.Head			Jaw			C7			R.Clavicle			L.Clavicle			R.Shoulder			L.Shoulder			R.Scapula			L.Scapula			R.Scap.Inf			R.Biceps.Lateral			R.Elbow			R.Elbow.Medial			R.Forearm			R.Ulna			R.Radius			R.Wrist			R.Thumb.M1			R.Thumb.M2			R.Thumb.M3			R.Finger3.M1			R.Finger3.M2			R.Finger3.M3			L.Biceps.Lateral			L.Elbow			L.Elbow.Medial			L.Forearm			L.Ulna			L.Radius			L.Wrist			L.Thumb.M1			L.Thumb.M2			L.Thumb.M3			L.Finger3.M1			L.Finger3.M2			L.Finger3.M3			V.Sacral			R.ASIS			L.ASIS			R.Thigh			R.Thigh.Front			R.Knee			R.Knee.Medial			R.Shank			R.Ankle			R.Ankle.Medial			R.Heel			R.Toe			R.MedFoot			L.Thigh			L.Knee			L.Knee.Medial			L.Shank			L.Ankle			L.Ankle.Medial			L.Heel			L.Toe			L.MedFoot			V_mid_ASIS			V_R_Knee_JC			V_L_Knee_JC			V_R_Elbow_JC			V_L_Elbow_JC			V_R_Ankle_JC			V_L_Ankle_JC			V_R_Wrist_JC			V_L_Wrist_JC			V_R_ScaTrpz_1stMC_JC			V_R_1stMC_1stPP_JC			V_R_1stPP_1stDP_JC			V_R_LunCap_3rdMC_JC			V_R_3rdMC_3rdPP_JC			V_R_3rdPP_3rdMP_JC			V_R_3rdMP_3rdDP_JC			V_L_ScaTrpz_1stMC_JC			V_L_1stMC_1stPP_JC			V_L_1stPP_1stDP_JC			V_L_LunCap_3rdMC_JC			V_L_3rdMC_3rdPP_JC			V_L_3rdPP_3rdMP_JC			V_L_3rdMP_3rdPP_JC			V_ROOT_JC			V_R_Hip_JC			V_L_Hip_JC			V_R_GlenHum_JC			V_L_GlenHum_JC			V_ForeHead_Ctr			V_Vertex			V_Sagit_Lambdoid_Suture			V_R_FrontoTemp			V_L_FrontoTemporal			V_R_ParietalOccip			V_L_ParietalOcciptal			V_R_Temporal			V_L_Temporal			V_mid_FrontRearHead			V_mid_RLGlenHumCtrs			V_C7_vert			V_C1_vert			V_Mid_Hip			
		X1	Y1	Z1	X2	Y2	Z2	X3	Y3	Z3	X4	Y4	Z4	X5	Y5	Z5	X6	Y6	Z6	X7	Y7	Z7	X8	Y8	Z8	X9	Y9	Z9	X10	Y10	Z10	X11	Y11	Z11	X12	Y12	Z12	X13	Y13	Z13	X14	Y14	Z14	X15	Y15	Z15	X16	Y16	Z16	X17	Y17	Z17	X18	Y18	Z18	X19	Y19	Z19	X20	Y20	Z20	X21	Y21	Z21	X22	Y22	Z22	X23	Y23	Z23	X24	Y24	Z24	X25	Y25	Z25	X26	Y26	Z26	X27	Y27	Z27	X28	Y28	Z28	X29	Y29	Z29	X30	Y30	Z30	X31	Y31	Z31	X32	Y32	Z32	X33	Y33	Z33	X34	Y34	Z34	X35	Y35	Z35	X36	Y36	Z36	X37	Y37	Z37	X38	Y38	Z38	X39	Y39	Z39	X40	Y40	Z40	X41	Y41	Z41	X42	Y42	Z42	X43	Y43	Z43	X44	Y44	Z44	X45	Y45	Z45	X46	Y46	Z46	X47	Y47	Z47	X48	Y48	Z48	X49	Y49	Z49	X50	Y50	Z50	X51	Y51	Z51	X52	Y52	Z52	X53	Y53	Z53	X54	Y54	Z54	X55	Y55	Z55	X56	Y56	Z56	X57	Y57	Z57	X58	Y58	Z58	X59	Y59	Z59	X60	Y60	Z60	

199	1.650	408.50562	73.10350	1793.34412	306.35535	62.70714	1682.03198	533.26971	70.28027	1692.95410	349.07932	64.11046	1515.12634	544.30048	66.31921	1556.45068	441.45959	183.16969	1463.43262	437.93066	-47.26840	1465.99414	481.54749	271.37473	1455.03979	507.33292	-142.25388	1473.45044	592.37689	157.79059	1472.34790	595.36322	-12.96838	1476.02820	640.54065	165.20329	1384.58826	523.93304	331.38544	1277.10278	552.93304	351.24481	1122.92627	575.74048	264.40552	1105.64722	464.30185	295.05228	1012.39532	488.67288	338.50931	909.73016	427.88248	274.28589	884.71295	428.58667	314.18909	837.08643	416.96408	269.26050	851.56946	379.63409	236.28961	810.96802	340.87808	234.17685	785.85596	382.52209	314.93817	770.11823	364.93430	275.57129	718.06995	377.28738	231.18941	693.18585	537.41742	-204.09888	1326.31421	560.01709	-249.21271	1150.49890	604.33264	-182.68346	1133.90027	492.35529	-225.44931	1045.90698	543.96277	-245.11516	956.12207	473.63718	-195.11458	906.49219	481.27985	-228.16447	849.24695	463.77283	-181.66975	841.33789	466.63931	-146.83557	792.07495	463.68149	-150.66011	730.88831	466.26605	-242.86855	775.18140	478.55261	-223.47000	718.56415	500.07230	-203.98543	674.95142	631.37054	54.36799	1078.21436	537.27490	242.81514	1021.90491	523.03979	-130.93735	1023.14740	551.10223	195.57133	620.43658	496.67657	106.41251	529.89850	560.93762	164.31357	486.83118	566.32953	49.50343	492.83807	613.02747	115.26405	311.34897	790.70215	144.02960	101.29816	756.21429	46.10418	117.84801	854.99646	86.11032	94.89847	623.85583	96.54527	48.16974	686.89410	61.07002	78.95341	401.34622	-109.99722	653.14923	344.89941	-85.74381	519.10864	345.49442	29.52667	517.77429	315.64218	-35.68435	322.52487	387.77957	-55.12220	70.54224	354.64944	36.07653	110.85529	436.76453	9.18637	55.21721	203.98654	-14.00869	54.08124	263.37741	17.44180	74.77481																																																																																																																															
200	1.658	401.91959	71.34853	1793.77356	299.78113	61.65720	1682.69238	527.22717	68.89407	1693.32446	341.99188	63.02101	1515.52209	539.98737	65.41273	1556.47461	435.86713	182.90106	1463.66968	430.31824	-47.77716	1465.66626	477.11420	270.58994	1455.70374	501.03970	-142.37300	1473.36304	586.75519	157.00128	1473.06372	588.18744	-13.88941	1476.85742	634.39862	164.88132	1384.64502	519.85785	329.57306	1277.37109	548.81787	349.93808	1123.10571	572.56122	262.35263	1105.19287	460.44846	295.47668	1012.29230	486.66708	338.56198	910.22455	425.31967	273.97928	883.61102	427.65625	313.81644	836.70563	413.52127	268.12912	850.66522	377.05688	235.90765	809.84003	337.97467	232.83479	784.49207	380.37180	315.34204	768.47937	364.17651	275.67020	716.86835	376.34650	230.71027	691.98456	530.24554	-205.46994	1325.81970	551.68915	-249.98900	1150.70752	594.41473	-183.61292	1133.08960	484.49249	-225.90903	1046.46924	535.93005	-245.55518	956.32257	465.39523	-195.01401	906.61475	473.47598	-228.89926	849.27106	455.58722	-183.09807	841.52795	457.86569	-148.53085	792.90356	454.96933	-151.91936	731.07367	458.19846	-244.20430	775.05469	469.28464	-223.81599	718.44885	491.36020	-203.29095	674.41595	624.90137	53.18469	1079.31348	530.43298	242.85207	1022.00732	516.15656	-130.98961	1023.49225	544.83826	195.67642	621.02039	489.12451	105.61633	530.34552	554.30542	164.12354	486.44949	558.67676	49.18362	493.43018	608.55017	115.43793	312.21722	789.82031	143.50345	104.82758	753.87372	46.20991	120.18150	853.10358	86.46029	100.01748	623.61206	96.66537	48.55720	684.80457	61.01379	79.51791	395.09003	-110.77958	653.40991	337.56656	-86.20754	518.33398	339.89441	30.38184	518.98254	311.79474	-34.77659	321.42664	387.24728	-55.83312	69.99394	353.89819	35.46701	111.19216	436.19235	8.78161	56.24685	202.44124	-15.19116	53.55548	263.18738	16.62709	74.89034																																																																																																																															
201	1.667	396.38120	68.90032	1794.54968	294.07892	61.35392	1683.01563	522.03607	67.83205	1692.84851	336.50085	63.20252	1516.31384	532.50476	65.00855	1558.61597	429.06714	180.79918	1464.86597	424.45148	-48.76514	1466.58667	470.63708	268.51028	1456.84863	493.45547	-143.36638	1474.65491	579.97510	155.37624	1473.02283	582.62573	-16.25765	1477.50598	628.30518	163.11214	1385.56213	514.03204	328.54117	1278.35803	544.42645	347.90677	1124.31836	567.43512	260.36887	1105.91052	455.88623	293.39389	1012.38458	482.82111	337.13910	909.96490	422.84299	272.96790	883.44354	424.59073	312.47372	836.17474	412.08795	267.81235	850.10138	374.63055	235.54230	808.89465	336.56403	232.83885	782.64154	379.18179	315.22931	768.29364	364.50293	275.93665	715.98730	375.46671	230.33861	691.28180	522.82037	-206.45206	1325.79712	543.44128	-251.20013	1151.11743	588.27795	-185.87759	1134.22498	476.43384	-225.94553	1046.35278	527.85388	-247.01707	956.78491	457.22037	-196.58305	906.83441	465.27914	-229.21834	849.53015	447.04285	-183.23387	841.56091	449.55545	-148.70483	793.08936	446.70605	-152.89381	731.63562	449.81543	-244.75409	775.18958	460.73572	-224.81740	718.15851	483.04303	-204.34683	675.09949	618.97650	51.47575	1080.49573	530.00806	244.48488	1022.63330	508.73303	-132.31627	1024.22302	536.94446	195.27071	621.50427	480.98126	105.31891	530.20300	545.77087	164.69742	486.08096	550.71051	48.38780	494.22928	603.77509	115.17471	312.51724	788.25604	142.79918	107.28466	751.70111	46.30536	123.24224	851.04407	86.30759	104.13669	623.49286	96.89401	48.41746	683.58978	60.22154	80.81378	388.94684	-110.13170	653.19391	331.65393	-87.03547	518.05469	334.28809	29.22267	519.76874	308.95123	-34.55303	320.24820	386.44608	-56.30247	70.30852	353.71970	35.47889	111.19047	436.22330	7.28331	56.39172	201.92044	-14.45926	52.89264	262.42331	16.39552	74.83253																																																																																																																															
202	1.675	390.67352	69.10507	1793.84167	288.13644	60.39703	1684.42395	514.77893	67.12592	1694.06201	329.84735	62.68262	1517.44470	525.81427	63.70267	1559.36768	422.74664	180.09631	1465.07324	417.49719	-48.84487	1467.22168	464.62827	267.79495	1456.74817	487.68857	-144.23151	1474.66309	574.76294	154.52165	1474.20862	575.62604	-17.48421	1477.54968	621.35571	163.73622	1386.11963	508.73865	327.40045	1278.69653	539.67328	346.14655	1125.65259	563.24762	258.09821	1105.94421	452.15286	291.49384	1013.44000	480.47232	336.14600	911.45801	419.83084	273.45905	883.09412	421.63589	312.61118	836.52783	409.04742	267.53397	849.77435	372.35980	235.82927	808.21155	334.76678	233.23384	781.41541	378.36569	315.17383	767.86072	363.68051	276.19818	714.47144	374.79630	230.56424	689.75854	515.73163	-208.15251	1326.26123	535.88062	-251.15187	1151.32886	577.89484	-185.51971	1134.38647	467.99777	-227.20837	1046.49133	519.15338	-248.03766	956.88263	448.78445	-197.14072	906.68903	457.10272	-231.00626	850.12305	439.05637	-183.67282	842.35596	441.04364	-150.34933	793.52911	437.72498	-154.56784	732.22778	441.52090	-246.10728	775.65674	451.94666	-226.72566	718.90796	474.33273	-205.72614	675.69257	612.17804	50.98526	1080.75574	521.32556	242.77097	1024.05188	501.67740	-133.82327	1024.69434	529.14539	195.03473	621.72382	470.42136	106.58618	531.10010	538.25275	165.47493	486.38409	542.77686	51.05957	493.56900	597.90851	116.05064	313.07477	785.71771	143.01041	111.75860	747.85156	46.52137	126.06137	848.44806	85.12506	110.13503	623.28955	96.94876	48.68926	681.18457	60.06222	82.29807	383.39682	-110.72997	653.30396	326.55276	-87.52319	517.63184	328.64957	28.19718	519.79126	305.41528	-35.38038	319.35715	385.73181	-56.60794	70.19844	353.18231	35.43089	111.09854	436.24020	7.31821	56.74859	201.61723	-13.55893	51.41228	262.08426	16.85662	74.25974																																																																																																																															
